<?xml version="1.0" encoding="UTF-8"?>
<svg width="80.602mm" height="102.87mm" version="1.1" viewBox="0 0 80.602 102.87" xmlns="http://www.w3.org/2000/svg" xmlns:cc="http://creativecommons.org/ns#" xmlns:dc="http://purl.org/dc/elements/1.1/" xmlns:rdf="http://www.w3.org/1999/02/22-rdf-syntax-ns#">
 <metadata>
  <rdf:RDF>
   <cc:Work rdf:about="">
    <dc:format>image/svg+xml</dc:format>
    <dc:type rdf:resource="http://purl.org/dc/dcmitype/StillImage"/>
    <dc:title/>
   </cc:Work>
  </rdf:RDF>
 </metadata>
 <g transform="translate(-40.586 -51.375)">
  <g>
   <path d="m63.404 108.18 8.5673-10.02-2.7244-1.2402-17.778 3.6201-1.4649 1.8204z" fill="#614f42"/>
   <path d="m91.773 107.09-4.2347 11.574 12.581 5.4639 1.7666-7.0638z" fill="#614f42"/>
   <path d="m46.851 111.12-0.15848-0.073-0.08406 0.15296-0.16536 0.2949 60.286 27.996 0.1571-0.55121z" fill="#e3decf"/>
  </g>
  <g fill="#614f42">
   <path d="m88.553 103.91-9.1805-9.0537-3.1364 0.63941-2.1704 2.2131z"/>
   <path d="m72.42 96.271-0.93569 0.19155 0.57602 0.25907z"/>
   <path d="m102.36 115.15 2.0078-8.0312c-0.31006-0.1819-0.60772-0.37069-0.89022-0.57326-2.7588-1.972-5.1153-4.5324-6.7262-7.5255-0.45613-0.84612-0.78273-1.7556-1.0514-2.6789l-3.2908 8.9958z"/>
  </g>
  <g>
   <path d="m95.77 68.158c1.7942 2.1621 2.7836 4.9844 2.7354 7.7942-0.05374 3.1764-1.6288 5.9862-2.3247 9.0262-0.91364 3.9977-0.37483 8.0353 1.1093 11.822 1.3036 3.3293 3.7703 6.0896 6.7055 8.0836 3.3624 2.2848 7.1906 3.802 10.557 6.0992 1.1314 0.7717 1.943 1.6702 2.4336 2.9724 0.94809-2.1773 0.75654-4.5172-0.30317-6.6284-1.604-3.1929-4.9361-5.344-7.6426-7.5337-2.6817-2.1704-5.3385-4.5682-6.6146-7.8617-1.0349-2.6762-1.5062-5.5687-1.3794-8.4336 0.15434-3.4658 1.4979-6.7055 1.6688-10.173 0.2384-4.8066-1.9913-9.1832-6.5774-10.993-3.7111-1.4649-8.1649-2.0188-12.131-1.1452-0.50574 0.82544-1.0005 1.6564-1.4786 2.4984 4.7542-0.57051 10.131 0.72623 13.242 4.4717" fill="#355963"/>
   <path d="m84.873 64.606c-0.72898 0.0028-1.4497 0.07028-2.147 0.20671l-0.72209 2.588z" fill="#614f42"/>
   <path d="m78.721 72.18c-0.20946 0.82131-0.339 1.6536-0.32935 2.4433l1.0211-3.011s-0.33624 0.28663-0.69178 0.56775" fill="#614f42"/>
   <path d="m44.173 121.03c0.43133 1.9141 1.079 3.78 1.9279 5.5494 0.14607 0.30317 0.29903 0.60496 0.39963 0.92604 0.16536 0.5209 0.19155 1.0735 0.1943 1.6192 0.0028 0.56224-0.03445 1.1658-0.37758 1.6109-0.03721 0.0496-0.08131 0.11024-0.06063 0.1695 0.0124 0.0331 0.0441 0.0551 0.07304 0.0758 0.59807 0.41893 1.1961 0.83785 1.7942 1.2568 0.05236 0.0386 0.11162 0.0772 0.17639 0.0744 0.11851-4e-3 0.18604-0.13505 0.22738-0.24667 0.19017-0.51125 0.44648-1.0239 0.44511-1.5765 0-0.051-0.0028-0.10473-0.02894-0.14882-0.0441-0.0717-0.1378-0.0896-0.21635-0.1199-0.48369-0.18327-0.74552-0.96187-0.93707-1.3932-0.29628-0.66422-0.57188-1.396-0.62838-2.1263-0.13505-1.7487-0.21773-3.5016-0.35967-5.2503l-2.7933-1.3698c0.03032 0.31971 0.09371 0.63528 0.16399 0.94947" fill="#14262b"/>
   <path d="m98.692 148.13c-0.45889 0.35003-0.92604 0.70832-1.254 1.1837-0.15021 0.22049-0.26872 0.46164-0.42995 0.67386-0.65733 0.86403-1.848 1.0652-2.8181 1.5544-0.36242 0.1819-0.74552 0.41892-1.1451 0.34175-0.17914-0.0344-0.38447-0.12816-0.53055-0.0179-0.08957 0.0661-0.11851 0.18466-0.14194 0.29352-0.07304 0.33762-0.18466 0.66422-0.27285 0.9977-0.05926 0.22462-0.25631 0.6339-0.22462 0.86127 0.04961 0.3707 1.2802 0.17502 1.5558 0.17226 0.25218-3e-3 0.5526-0.0331 0.67248-0.25494 0.08682-0.16261 0.03721-0.36518 0.07717-0.5457 0.05512-0.24667 0.26872-0.42168 0.46991-0.57602 0.75654-0.58016 1.5131-1.1617 2.2696-1.7418 0.226-0.17364 0.45337-0.34727 0.70693-0.47818 0.2825-0.14332 0.5898-0.22738 0.89297-0.31695 0.69316-0.20395 1.3849-0.43684 2.0078-0.8034 0.47404-0.27836 0.90675-0.64216 1.2264-1.0859l-2.0684-1.0142z" fill="#14262b"/>
  </g>
  <g fill="#614f42">
   <path d="m94.777 87.079c0.27974-2.1277 0.78686-4.2044 1.3546-6.2701 0.4327-1.5723 0.6904-3.2549 0.67937-4.921l-12.834 12.291-1.1727 5.559-1.582 0.5581 9.9646 9.8268 3.8172-10.754c-0.37896-2.0753-0.50574-4.1644-0.22738-6.2894"/>
   <path d="m73.018 98.517-0.59807 0.71796-3.2687 11.438 17.078 7.418 4.2278-11.909z"/>
   <path d="m96.693 74.116c-0.26045-1.9706-0.96187-3.853-2.2765-5.4253-1.7625-2.1084-4.6716-3.5347-7.6688-3.9563l-5.5246 5.1015-2.0657 7.3491c0.1378 0.18741 0.29352 0.36656 0.47404 0.53192 3.3321 3.0413 4.5461 5.9393 4.892 6.9467 0.08268 0.24116 0.11576 0.37621 0.11576 0.37621l-0.15985 0.76343z"/>
  </g>
  <g>
   <path d="m47.928 103.08 0.76895-1.0597-3.5622 0.81993 1.9155 0.87781-4.2292 6.9439 2.2228 1.0528 0.4768 0.226 0.27285-0.47267 4.3133-7.4414z" fill="#14262b"/>
   <path d="m45.214 112.47-0.03858 0.0662 0.03858-0.0662-0.50023-0.25907-4.1272 6.1902 2.6569 1.3022 3.977-6.1902z" fill="#14262b"/>
   <path d="m49.477 100.94-3.6036 0.7345-0.73863 1.1589 3.5622-0.81993z" fill="#e3e8e6"/>
   <path d="m84.523 84.664-31.379 7.378c-0.19292 0.27561-0.38585 0.54984-0.58015 0.82406l32.077-7.8259s-0.03447-0.13505-0.11713-0.37621" fill="#e3e8e6"/>
   <path d="m103.16 139.82-2.2751 6.9439-55.546-27.145 3.2618-5.3881-0.94809-0.53881-3.9329 6.2439 0.29352 0.14331 2.7933 1.3698 52.884 25.926 2.0684 1.0142 0.10473 0.0496 2.7919-7.932z" fill="#14262b"/>
   <path d="m106.72 141.52-0.50712-0.23151-1.0556-0.48369-2.6569 7.9485 3.525 1.7281 2.1828-8.2793z" fill="#14262b"/>
   <path d="m106.88 141-0.514-0.24392-60.311-28.572-0.5333-0.25218-0.4768-0.226-0.33073 0.49609 0.50023 0.26045 2.0064 1.0432-3.977 6.1902 0.47267 0.23289 3.9343-6.2439 0.94671 0.53881-3.2618 5.3881 55.546 27.143 2.2738-6.9426 1.4966 0.68902-2.7919 7.9306 0.64354 0.31695 2.6582-7.9485 1.0542 0.48369 0.50712 0.23151 1.4883 0.68213 0.13229-0.50436z" fill="#e3decf"/>
   <path d="m47.965 108.77-1.2719 2.2793 0.1571 0.073 60.036 27.82 0.90261-3.1585z" fill="#14262b"/>
   <path d="m50.107 104.02-4.3133 7.4414-0.27285 0.47267 0.5333 0.25356 0.38861-0.69729 0.16536-0.2949 0.08544-0.15296 1.2719-2.2793 0.24254-0.43547 2.3055-4.1314z" fill="#e3decf"/>
   <path d="m46.443 111.49-0.38861 0.69729 60.311 28.571 0.3638-1.2733z" fill="#14262b"/>
   <path d="m107.95 135.23 1.5448-5.4074-58.977-25.623-2.3055 4.1327z" fill="#14262b"/>
   <path d="m109.49 129.82-1.5448 5.4074-0.1571 0.54984-0.90261 3.1585-0.5209 1.8231 0.514 0.24392 3.3169-10.877z" fill="#e3decf"/>
   <path d="m47.965 108.77 59.823 27.014 0.1571-0.54984-59.738-26.898z" fill="#e3decf"/>
   <path d="m116.54 114.98c-1.7749-4.2044-6.893-5.2751-10.863-7.1741l-2.0684 8.5714 9.9839 9.8461 3.2081-10.39c-0.0551-0.29353-0.14332-0.57878-0.26045-0.85301" fill="#614f42"/>
   <path d="m101.59 124.76 10.984 4.7694 0.45751-1.4814-9.8833-9.7469z" fill="#614f42"/>
  </g>
  <g fill="#000207">
   <path d="m71.551 97.966-3.0813 2.8994 0.68213 0.2701 1.4483-1.3739 1.3711-1.604z"/>
   <path d="m70.586 97.528-2.9848 2.8746 0.53882 0.32935 3.0579-2.9256z"/>
   <path d="m69.581 97.07-2.8787 2.7933 0.64492 0.37345 2.9338-2.8484z"/>
   <path d="m68.304 97.109-2.5287 2.3661 0.53881 0.2384 3.0289-2.7519-0.09646-0.0441z"/>
   <path d="m66.941 97.387-1.8838 1.8025 0.47818 0.19292 2.3399-2.1856z"/>
   <path d="m65.658 97.648-1.2898 1.2278 0.52503 0.25356 1.6619-1.6633z"/>
   <path d="m64.491 97.886-0.6904 0.6904 0.34589 0.17915 1.141-1.0322z"/>
   <path d="m63.059 98.177-0.32108 0.26458 0.66559 0.07579 0.63252-0.53882z"/>
  </g>
  <g fill="none" stroke="#000207" stroke-miterlimit="10" stroke-width=".15134">
   <path d="m62.141 107.63 6.9302-6.8971"/>
   <path d="m68.041 100.4-6.9398 6.7744"/>
   <path d="m67.142 99.864-6.9591 6.915"/>
   <path d="m66.085 99.383-6.9577 6.9384"/>
   <path d="m65.606 98.415-7.6178 7.4097"/>
   <path d="m64.036 98.517-7.0308 6.8819"/>
   <path d="m63.072 98.316-7.1493 6.6118"/>
   <path d="m61.891 98.415-6.6849 6.2026"/>
   <path d="m59.596 98.882-5.7147 5.1594"/>
   <path d="m57.139 99.383-4.5544 4.0955"/>
   <path d="m55.206 99.777-3.8006 3.1888"/>
   <path d="m53.305 100.16-2.6624 2.4708"/>
   <path d="m71.79 102.37-2.6389 8.3041"/>
   <path d="m72.539 102.37-2.7823 8.5659"/>
   <path d="m73.258 102.85-2.9766 8.3137"/>
   <path d="m73.853 102.93-2.96 8.5659"/>
   <path d="m74.389 103.19-2.9063 8.4942"/>
   <path d="m75.077 103.38-3.1254 8.508"/>
   <path d="m75.69 103.74-3.1516 8.4005"/>
   <path d="m76.383 104.12-3.3914 8.2186"/>
   <path d="m76.76 104.46-3.1681 8.1442"/>
   <path d="m77.522 104.7-3.2632 8.1883"/>
   <path d="m78.331 105.03-3.2535 8.2159"/>
   <path d="m79.003 105.2-3.3128 8.3137"/>
   <path d="m80.111 105.51-3.4465 8.4295"/>
   <path d="m79.422 105.27-3.3252 8.4253"/>
   <path d="m80.869 106.03-3.4217 8.2476"/>
   <path d="m81.394 106.32-3.4479 8.1731"/>
   <path d="m81.886 106.55-3.4451 8.1222"/>
   <path d="m82.645 106.85-3.6422 8.0987"/>
   <path d="m83.323 107.21-3.6532 8.0326"/>
   <path d="m84.233 107.53-3.7221 8.0794"/>
   <path d="m84.806 107.94-3.412 8.147"/>
   <path d="m85.72 108.08-3.3486 8.3316"/>
   <path d="m86.245 108.41-3.2742 8.2696"/>
   <path d="m86.975 108.8-3.2191 8.2186"/>
   <path d="m87.912 108.92-3.3734 8.435"/>
   <path d="m88.771 109.29-3.3927 8.4308"/>
  </g>
  <g fill="#000207">
   <path d="m72.011 102.6-0.43959-0.11162 0.92191-3.6642 0.43959 0.11024z"/>
   <path d="m72.711 102.76-0.58153-0.1695 1.1424-3.9205 0.58153 0.1695z"/>
   <path d="m73.385 103.19-0.43408-0.13505 1.2444-3.9963 0.43408 0.13505z"/>
   <path d="m74.079 103.41-0.57878-0.17639 1.1975-3.9384 0.57877 0.17639z"/>
   <path d="m74.626 103.55-0.42857-0.15158 1.3298-3.7648 0.42719 0.15158z"/>
   <path d="m75.27 103.74-0.56362-0.2191 1.4028-3.6339 0.565 0.21773z"/>
   <path d="m75.974 104.23-0.56775-0.20671 1.3863-3.8227 0.56913 0.20671z"/>
   <path d="m76.465 104.46-0.42857-0.15021 1.3381-3.8447 0.42857 0.14883z"/>
   <path d="m76.875 104.7-0.4203-0.17226 1.5668-3.8089 0.41892 0.17225z"/>
   <path d="m77.732 105.03-0.56913-0.20671 1.4015-3.8488 0.56913 0.20808z"/>
   <path d="m78.515 105.44-0.56775-0.20671 1.4152-3.9026 0.56913 0.20671z"/>
   <path d="m79.363 105.64-0.70556-0.35002 1.3808-3.5829 0.74414 0.28801z"/>
   <path d="m80.34 105.92-0.5774-0.18328 1.1727-3.7042 0.57602 0.1819z"/>
   <path d="m81.088 106.41-0.57878-0.17777 1.1906-3.8613 0.57878 0.17914z"/>
   <path d="m81.609 106.62-0.42857-0.15021 1.3271-3.7634 0.42857 0.15021z"/>
   <path d="m82.09 106.85-0.42719-0.15297 1.3505-3.7744 0.42719 0.15296z"/>
   <path d="m82.835 107.18-0.56775-0.21084 1.3973-3.7565 0.56775 0.21221z"/>
   <path d="m83.53 107.64-0.55948-0.23013 1.5682-3.8213 0.55948 0.23013z"/>
   <path d="m84.468 107.9-0.57464-0.18879 1.2513-3.8296 0.57464 0.18741z"/>
   <path d="m85.099 108.29-0.56086-0.22876 1.5448-3.7937 0.56086 0.22738z"/>
   <path d="m85.805 108.41-0.42857-0.15021 1.3064-3.7138 0.42857 0.1502z"/>
   <path d="m86.531 108.76-0.57326-0.19293 1.2761-3.7717 0.57326 0.1943z"/>
   <path d="m87.183 109.06-0.5705-0.20119 1.3229-3.762 0.57188 0.20119z"/>
   <path d="m88.06 109.29-0.565-0.21911 1.3891-3.565 0.565 0.2191z"/>
   <path d="m88.981 109.67-0.56362-0.21911 1.3794-3.5443 0.56362 0.2191z"/>
  </g>
  <g fill="none" stroke="#000207" stroke-miterlimit="10" stroke-width=".15134">
   <path d="m90.122 106.17 4.9485-14.126"/>
   <path d="m89.017 105.89 5.9201-15.542"/>
   <path d="m88.152 105.33 6.9191-17.97"/>
   <path d="m87.496 105.2 7.8314-19.641"/>
   <path d="m86.883 104.89 8.6858-20.81"/>
   <path d="m86.245 104.54 9.7427-22.295"/>
   <path d="m85.365 104.23 11.666-26.01"/>
   <path d="m84.608 103.91 12.424-27.489"/>
   <path d="m83.756 103.55 12.714-27.665"/>
   <path d="m83.1 103.21 12.227-26.795"/>
   <path d="m82.569 102.93 11.366-25.549"/>
   <path d="m81.886 102.71 9.9963-22.822"/>
   <path d="m81.088 102.46 9.3693-21.313"/>
   <path d="m80.163 102.06 8.8539-19.813"/>
   <path d="m79.422 101.6 8.1373-17.513"/>
   <path d="m78.657 101.33 7.5875-16.169"/>
   <path d="m78.149 100.98 7.2168-15.417"/>
   <path d="m77.522 100.72 5.9697-13.129"/>
   <path d="m76.919 100.54 3.9495-9.2356"/>
   <path d="m76.097 100.4 2.7519-6.2453"/>
   <path d="m75.406 100.17 2.7423-6.0082"/>
   <path d="m74.903 99.713 2.0161-5.4157"/>
   <path d="m74.258 99.383 1.8383-4.8962"/>
   <path d="m91.021 110.69-2.6403 8.3027"/>
   <path d="m91.769 110.69-2.7836 8.5645"/>
   <path d="m92.487 111.16-2.9752 8.3137"/>
   <path d="m93.082 111.24-2.96 8.5645"/>
   <path d="m93.619 111.51-2.9049 8.4942"/>
   <path d="m94.306 111.7-3.124 8.508"/>
   <path d="m94.919 112.06-3.1502 8.4005"/>
   <path d="m95.614 112.44-3.3927 8.2172"/>
   <path d="m95.989 112.77-3.1681 8.1442"/>
   <path d="m96.752 113.02-3.2646 8.1883"/>
   <path d="m97.56 113.34-3.2535 8.2159"/>
   <path d="m99.34 113.82-3.4451 8.4295"/>
   <path d="m98.502 113.53-3.3252 8.424"/>
  </g>
  <g fill="#000207">
   <path d="m91.543 109.66-0.44097-0.11162 0.62012-2.4088 0.44097 0.11024z"/>
   <path d="m92.243 109.82-0.58153-0.1695 0.8406-2.6651 0.58015 0.1695z"/>
   <path d="m92.917 110.25-0.43408-0.13505 0.94258-2.7409 0.4327 0.13505z"/>
   <path d="m93.612 110.47-0.57878-0.17639 0.89573-2.683 0.57877 0.17639z"/>
   <path d="m94.157 110.61-0.42719-0.15158 1.028-2.508 0.42719 0.15021z"/>
   <path d="m94.802 110.8-0.56499-0.21773 1.1024-2.3785 0.565 0.21773z"/>
   <path d="m95.506 111.28-0.56913-0.20533 1.0845-2.5687 0.56913 0.2067z"/>
   <path d="m95.997 111.51-0.42995-0.14883 1.0363-2.5893 0.42857 0.14883z"/>
   <path d="m96.406 111.76-0.41892-0.17226 1.2637-2.5535 0.4203 0.17225z"/>
   <path d="m97.265 112.09-0.56913-0.20671 1.0997-2.5921 0.56775 0.2067z"/>
   <path d="m98.048 112.49-0.56913-0.20671 1.1148-2.6472 0.56775 0.2067z"/>
   <path d="m98.895 112.7-0.70556-0.35002 1.079-2.3248 0.74276 0.28663z"/>
   <path d="m99.872 112.98-0.5774-0.18328 0.86955-2.4488 0.57739 0.1819z"/>
   <path d="m100.62 113.47-0.57878-0.17914 0.88883-2.6045 0.57878 0.17915z"/>
   <path d="m101.14 113.68-0.42857-0.1502 1.0239-2.508 0.42857 0.15021z"/>
   <path d="m101.62 113.91-0.42719-0.15296 1.0487-2.5191 0.42719 0.15296z"/>
   <path d="m102.37 114.24-0.56775-0.21084 1.0942-2.5011 0.34313 0.12816z"/>
  </g>
  <g fill="none" stroke="#000207" stroke-miterlimit="10" stroke-width=".15134">
   <path d="m104.23 106.67-1.2761 5.0946"/>
   <path d="m99.902 114.24-3.3114 8.3509"/>
   <path d="m100.71 114.28-3.2343 8.7547"/>
   <path d="m101.28 114.48-3.0331 8.8994"/>
   <path d="m101.8 114.84-2.5053 8.8828"/>
   <path d="m102.36 111.4 1.4704-4.9375"/>
   <path d="m101.89 111.28 1.5007-5.1166"/>
   <path d="m101.19 110.94 1.7611-5.1966"/>
   <path d="m100.34 110.69 2.023-5.3523"/>
   <path d="m99.584 110.34 2.0037-5.5494"/>
   <path d="m98.845 109.9 2.3496-5.7754"/>
   <path d="m98.027 109.5 2.4116-6.0675"/>
   <path d="m97.389 109.21 2.5149-6.1185"/>
   <path d="m96.696 109.04 2.6458-6.8571"/>
   <path d="m96.3 108.78 2.5452-7.1176"/>
   <path d="m95.53 108.41 2.8332-7.265"/>
   <path d="m94.919 108.2 3.0992-7.7432"/>
   <path d="m94.239 107.9 3.1502-8.3137"/>
   <path d="m96.946 98.906-3.4589 8.8815"/>
   <path d="m96.3 97.31-3.5567 10.087"/>
   <path d="m95.989 96.592-4.1066 10.933"/>
   <path d="m103.82 116.8-2.2462 7.9968"/>
   <path d="m104.57 116.8-2.3895 8.26"/>
   <path d="m105.28 117.28-2.5811 8.0064"/>
   <path d="m105.88 117.35-2.5673 8.26"/>
   <path d="m106.41 117.62-2.5122 8.1869"/>
   <path d="m107.1 117.81-2.7326 8.2021"/>
   <path d="m107.72 118.17-2.7588 8.096"/>
   <path d="m108.41 118.55-2.9986 7.9113"/>
   <path d="m108.79 118.88-2.774 7.8383"/>
   <path d="m109.55 119.13-2.8704 7.8824"/>
   <path d="m110.36 119.46-2.8594 7.9099"/>
   <path d="m111.03 119.62-2.9201 8.0092"/>
   <path d="m112.14 119.93-3.0537 8.1235"/>
   <path d="m111.45 119.69-2.9325 8.1194"/>
   <path d="m112.9 120.45-3.0276 7.943"/>
   <path d="m113.42 120.74-3.0537 7.8672"/>
   <path d="m113.91 120.97-3.0813 7.8934"/>
   <path d="m114.67 121.28-3.248 7.7914"/>
  </g>
  <g fill="#000207">
   <path d="m104.34 115.77-0.43959-0.11162 0.61874-2.4088 0.44097 0.11162z"/>
   <path d="m105.04 115.93-0.58153-0.16949 0.84061-2.6651 0.58153 0.1695z"/>
   <path d="m105.71 116.36-0.43409-0.13505 0.94258-2.7395 0.43271 0.13505z"/>
   <path d="m106.41 116.58-0.57878-0.17639 0.89572-2.683 0.57878 0.17639z"/>
   <path d="m106.96 116.72-0.42857-0.15158 1.028-2.508 0.42718 0.15021z"/>
   <path d="m107.6 116.91-0.56362-0.21911 1.101-2.3785 0.565 0.21772z"/>
   <path d="m108.3 117.39-0.56913-0.20533 1.0845-2.5673 0.56913 0.20532z"/>
   <path d="m108.79 117.63-0.42857-0.15021 1.0349-2.5893 0.42857 0.15021z"/>
   <path d="m109.2 117.87-0.41893-0.17225 1.2637-2.5535 0.42031 0.17226z"/>
   <path d="m110.06 118.2-0.56914-0.2067 1.0997-2.5921 0.56775 0.2067z"/>
   <path d="m110.84 118.6-0.56913-0.20533 1.1148-2.6486 0.56913 0.20808z"/>
   <path d="m111.69 118.81-0.70556-0.35003 1.079-2.3261 0.74277 0.28663z"/>
   <path d="m112.67 119.09-0.57739-0.18328 0.86954-2.4488 0.57739 0.1819z"/>
   <path d="m113.42 119.58-0.5774-0.17776 0.88746-2.6045 0.57877 0.17777z"/>
   <path d="m113.94 119.79-0.42857-0.1502 1.0239-2.508 0.42857 0.15021z"/>
   <path d="m114.42 120.02-0.42719-0.15158 1.0487-2.5191 0.42719 0.15296z"/>
   <path d="m115.16 120.35-0.56775-0.21084 1.0942-2.4998 0.56775 0.21084z"/>
  </g>
  <g fill="none" stroke="#000207" stroke-miterlimit="10" stroke-width=".15134">
   <path d="m115.91 117.87 0.87781-2.672"/>
   <path d="m115.15 117.62 1.1975-3.7662"/>
   <path d="m114.6 117.39 1.1507-3.9081"/>
   <path d="m113.91 117.18 1.5145-4.4497"/>
   <path d="m115.05 112.38-1.8162 4.3422"/>
   <path d="m114.23 111.79-1.8438 4.7156"/>
   <path d="m113.31 111.1-1.7515 5.034"/>
   <path d="m112.65 110.63-1.9155 5.1428"/>
   <path d="m111.9 110.37-1.7074 5.067"/>
   <path d="m111.24 109.93c-0.0799 0.062-1.7639 5.4639-1.7639 5.4639"/>
   <path d="m110.61 109.57-1.684 5.3523"/>
   <path d="m109.98 109.32-1.6564 5.344"/>
   <path d="m109.47 109.07-1.757 5.2476"/>
   <path d="m108.7 108.81-1.7901 5.2545"/>
   <path d="m107.98 108.54-1.644 5.3096"/>
   <path d="m107.04 108.28-1.5434 5.2117"/>
   <path d="m106.26 107.83-1.5296 5.7767"/>
  </g>
  <g fill="#e3decf">
   <path d="m95.637 150.94c0.08819 0.26459 0.2136 0.565 0.38723 0.81994 0.16536-0.12678 0.33073-0.25494 0.49609-0.38172-0.16398-0.20119-0.31006-0.43822-0.42857-0.65181-0.14607 0.0772-0.30041 0.14745-0.45475 0.21359"/>
   <path d="m101.75 148.39-2.0684-1.0142c-0.18466 0.14056-0.37069 0.2825-0.55535 0.42306l2.147 1.1231c0.17639-0.16261 0.33762-0.339 0.4768-0.53192"/>
   <path d="m97.182 149.73c-0.05374 0.0896-0.11024 0.17777-0.17363 0.26045-0.05926 0.0786-0.12403 0.14883-0.19155 0.21635 0.09508 0.20946 0.23151 0.43133 0.41892 0.63252 0.1254-0.0882 0.25494-0.17225 0.39136-0.24116 0.04823-0.0248 0.09784-0.0469 0.14883-0.0675-0.3142-0.22049-0.49334-0.52779-0.59394-0.80064"/>
   <path d="m47.056 125.17c-0.44373 0.12402-1.0294 0.1502-1.5172 0.14331 0.04823 0.11714 0.09922 0.23289 0.14883 0.34727 0.42444-7e-3 0.93707-0.0289 1.396-0.0813-0.0096-0.13643-0.01929-0.27286-0.02756-0.40928"/>
   <path d="m47.228 127.16c-0.2825 0.10886-0.54984 0.15985-0.78548 0.17639 0.01929 0.0551 0.04134 0.10886 0.05788 0.16398 0.01791 0.0551 0.03307 0.11162 0.04823 0.16674 0.23564-0.0303 0.49609-0.0772 0.76068-0.14607-0.03169-0.11851-0.05788-0.23978-0.0813-0.36104"/>
  </g>
  <path d="m87.767 51.991c-0.55672-1.0253-1.8383-0.5333-2.6679-0.20395-1.3918 0.55122-2.5439 1.3574-3.6807 2.3289-1.4621 1.2499-2.774 2.6637-4.0115 4.1341-1.9293 2.2931-3.7662 4.6688-5.4915 7.1189-4.214 5.989-8.4281 11.978-12.644 17.965l-6.1281 8.7078 31.379-7.378c-0.34589-1.0073-1.5599-3.9054-4.892-6.9467-0.18052-0.16536-0.33762-0.34451-0.47404-0.53192-0.53468-0.72898-0.75379-1.6137-0.76619-2.5632-0.0096-0.78824 0.11989-1.6206 0.32935-2.4419 0.41203-1.6233 1.1286-3.2081 1.6523-4.3408 0.43821-0.94809 0.9095-1.8755 1.4028-2.7933 0.24529-0.45613 0.49609-0.90951 0.75241-1.3601 0.47818-0.84198 0.97152-1.6729 1.4786-2.4984 0.14469-0.23564 0.29077-0.46991 0.43684-0.70418 0.26183-0.41892 0.52503-0.83785 0.791-1.2554 0.19568-0.3073 0.39274-0.61185 0.58704-0.91777 0.95912-1.509 1.8493-3.0358 2.1112-4.8576 0.07166-0.49472 0.07304-1.0239-0.16536-1.4621" fill="#14262b"/>
  <path d="m46.802 121.45-2.7947-1.3698c0.01791 0.17915 0.04685 0.35829 0.07993 0.53606l2.7506 1.3188c-0.0124-0.16123-0.02205-0.32384-0.03583-0.48507" fill="#e3decf"/>
  <g fill="#bac2a1">
   <path d="m95.705 96.337c-0.052363-0.18052-0.10335-0.36105-0.15158-0.54295-0.21636-0.80753-0.40101-1.6151-0.54846-2.4253l-3.8172 10.754 1.2265 1.2099z"/>
   <path d="m103.61 116.38 2.0684-8.5728c-0.45199-0.21636-0.89021-0.44373-1.3064-0.68765l-2.0078 8.0312z"/>
   <path d="m96.693 74.116-12.214 11.687-0.5016 2.3757 12.834-12.291c-0.0041-0.59531-0.04134-1.1879-0.11851-1.7722"/>
   <path d="m86.748 64.735c-0.62425-0.08819-1.2526-0.13091-1.8741-0.12816l-2.8691 2.7947 0.72209-2.588c-0.32246 0.06201-0.63941 0.14056-0.95085 0.23289-0.49334 0.91777-0.96463 1.8466-1.4028 2.7933-0.52504 1.1327-1.2402 2.7175-1.6523 4.3408 0.35553-0.28112 0.69178-0.56775 0.69178-0.56775l-1.0211 3.011c0.01242 0.94809 0.23151 1.8328 0.76619 2.5618l2.0657-7.3491z"/>
   <path d="m116.81 105.99c-1.3243-1.961-3.0703-3.5484-4.9981-4.8934-1.994-1.3918-3.842-2.9917-5.5053-4.7666-0.54295-0.58153-1.0501-1.2016-1.542-1.8273-1.0142-1.2912-1.6826-2.9214-2.1525-4.4869-0.99908-3.3266-0.98255-6.8888-0.23151-10.264 1.6757-7.542 2.1938-12.449-3.9508-16.999-4.0514-3-10.237-2.7726-13.983-2.2696-0.14607 0.23427-0.29215 0.46853-0.43684 0.70418 3.966-0.87368 8.4212-0.3197 12.131 1.1452 4.5861 1.8094 6.8158 6.1874 6.5788 10.993-0.17225 3.4671-1.5158 6.7069-1.6702 10.173-0.12678 2.8649 0.34451 5.7574 1.3794 8.4336 1.2761 3.2935 3.9329 5.6913 6.6146 7.8617 2.7065 2.1897 6.0386 4.3408 7.6426 7.5337 1.0597 2.1112 1.2513 4.4511 0.30317 6.6284-0.49058-1.3022-1.3022-2.2007-2.4336-2.9724-3.3665-2.2972-7.1947-3.8144-10.557-6.0992-2.9352-1.994-5.4019-4.7542-6.7055-8.0822-1.4841-3.7882-2.023-7.8259-1.1093-11.825 0.69591-3.0386 2.271-5.8484 2.3247-9.0248 0.04823-2.8098-0.9412-5.632-2.7368-7.7942-3.1089-3.7455-8.486-5.0422-13.242-4.4717-0.25494 0.45062-0.50574 0.90399-0.75103 1.3601 0.31144-0.09233 0.62839-0.17088 0.95085-0.23289 0.69729-0.13643 1.418-0.20395 2.147-0.20671 0.6215-0.0028 1.2499 0.03996 1.8741 0.12816 2.9972 0.42168 5.9063 1.848 7.6688 3.9563 1.3146 1.5723 2.0161 3.4547 2.2765 5.4253 0.07717 0.58429 0.11576 1.1768 0.11851 1.7722 0.01101 1.666-0.24667 3.3486-0.67937 4.921-0.56775 2.0657-1.0749 4.1424-1.3546 6.2701-0.27837 2.1249-0.15158 4.214 0.22738 6.2894 0.14745 0.81028 0.33348 1.6178 0.54846 2.4253 0.04823 0.1819 0.09922 0.36242 0.15158 0.54295 0.26872 0.92329 0.59531 1.8328 1.0501 2.6789 1.6123 2.9917 3.9687 5.5535 6.7276 7.5255 0.2825 0.20257 0.58154 0.39136 0.89022 0.57326 0.41616 0.24392 0.85438 0.47129 1.3064 0.68765 3.9715 1.9003 9.0896 2.971 10.863 7.1754 0.11575 0.27423 0.20533 0.55948 0.26045 0.85163l-3.2081 10.392 1.2127 1.1961c0.0386-0.12127 0.0785-0.24253 0.11851-0.36242 0.70693-2.1746 1.4152-4.3491 2.1236-6.5236 0.61874-1.9031 1.4924-3.729 1.8838-5.7023 0.59394-2.9862-0.45199-6.3583-2.1263-8.8387"/>
  </g>
  <path d="m65.956 106.96-0.18052 1.666 1.7212 0.66835 1.3022-1.1672 1.1782-4.0101-0.96876-0.47956z" fill="#e3decf"/>
  <g fill="none" stroke="#000" stroke-miterlimit="10">
   <path d="m49.565 114.37-1.9761 3.9908" stroke-width="1.059"/>
   <g stroke-width=".75636">
    <path d="m51.22 115.17-1.6564 3.8502"/>
    <path d="m52.338 115.75-1.6357 3.6311"/>
    <path d="m55.451 117.09-1.5365 3.6821"/>
   </g>
   <g stroke-width="1.059">
    <path d="m63.404 120.92-2.2269 3.7483"/>
    <path d="m54.522 116.68-1.7653 4.09"/>
    <path d="m56.498 117.56-1.6757 4.181"/>
   </g>
   <g stroke-width=".9077">
    <path d="m58.743 118.73-1.8865 3.8213"/>
    <path d="m59.76 119.2-1.7653 3.8296"/>
    <path d="m62.035 120.27c0 0.11989-2.0064 3.9205-2.0064 3.9205"/>
   </g>
   <path d="m64.368 121.41-2.0781 3.7593" stroke-width=".75636"/>
   <path d="m66.344 122.55-1.7363 3.5788" stroke-width=".9077"/>
   <path d="m67.761 122.95-1.6757 3.4906" stroke-width=".9077"/>
   <path d="m69.836 123.94-1.9361 3.9315" stroke-width=".75636"/>
   <path d="m70.933 124.52c-0.02067 0.0606-2.0657 3.8117-2.0657 3.8117" stroke-width=".75636"/>
   <path d="m71.851 125.02-2.0147 3.6711" stroke-width=".9077"/>
   <path d="m73.626 125.91-1.7749 3.6201" stroke-width=".60537"/>
   <path d="m74.664 126.43-1.7556 3.5209" stroke-width=".9077"/>
   <g stroke-width=".75636">
    <path d="m76.56 127.24-2.0946 4.13"/>
    <path d="m77.637 127.72-2.3151 4.3257"/>
    <path d="m78.595 128.19-1.9306 4.0542"/>
   </g>
   <path d="m80.829 129.3-1.9802 4.1603" stroke-width=".9077"/>
   <g stroke-width=".75636">
    <path d="m81.947 129.88-2.107 4.1369"/>
    <path d="m84.102 130.73-1.9761 4.3698"/>
    <path d="m85.279 131.37-1.9155 4.1906"/>
    <path d="m86.555 131.85c-0.01929 0.0592-2.1112 4.3091-2.1112 4.3091"/>
    <path d="m88.331 132.8-1.7763 4.3684"/>
   </g>
   <path d="m89.388 133.28-1.6357 4.389" stroke-width=".9077"/>
   <path d="m91.663 134.52-1.9554 4.09" stroke-width=".75636"/>
   <path d="m92.8 134.99-2.1153 4.2402" stroke-width=".9077"/>
   <path d="m93.778 135.56-2.0354 4.3698" stroke-width=".75636"/>
   <path d="m95.553 136.32-1.9155 4.4456" stroke-width=".75636"/>
   <g stroke-width=".9077">
    <path d="m96.61 136.68-1.396 4.469"/>
    <path d="m99.129 137.87c-0.06477 0.11988-1.5406 4.3698-1.5406 4.3698"/>
    <path d="m100.22 138.54-1.2774 4.1823"/>
   </g>
   <path d="m101.46 138.91-1.3767 4.4497" stroke-width=".75636"/>
  </g>
  <g fill="#bac2a1">
   <path d="m102.51 114.56-1.4139-0.66284 1.2678 1.2499z"/>
   <path d="m103.61 116.38 0.32521 0.32109 11.034 5.0712 0.37069-1.203-11.447-5.3592z"/>
   <path d="m91.009 109.17-0.49471 1.3546 8.8925 4.0873-2.9132-2.8746z"/>
  </g>
  <g fill="#000207">
   <path d="m51.372 101.96 0.77997 0.38172-0.38998 0.3266-0.73863-0.38586z"/>
   <path d="m52.802 101.79 1.1507 0.45475-0.4644 0.41893-1.1107-0.51677z"/>
   <path d="m53.385 102.84 1.2168 0.4961-0.49196 0.45751-1.1741-0.56362z"/>
   <path d="m55.324 102.76 1.254 0.53881-0.50712 0.49472-1.2085-0.61185z"/>
   <path d="m55.831 103.89 0.8158 0.3762-0.32935 0.34589-0.78686-0.42719z"/>
   <path d="m57.212 103.79 0.92191 0.43132-0.37345 0.39688-0.88884-0.49058z"/>
   <path d="m58.711 103.68 0.92191 0.45475-0.37207 0.41754-0.89021-0.51538z"/>
   <path d="m60.331 103.56 0.9853 0.51539-0.39825 0.47542-0.94947-0.58704z"/>
   <path d="m59.323 104.55 0.9853 0.51677-0.39825 0.47542-0.95085-0.58704z"/>
   <path d="m57.747 104.62 0.9853 0.48231-0.39825 0.44373-0.95085-0.54846z"/>
   <path d="m60.885 104.55 0.9853 0.4837-0.39825 0.44372-0.95085-0.54846z"/>
   <path d="m59.872 105.62 0.9853 0.48232-0.39825 0.44373-0.95085-0.54846z"/>
   <path d="m61.468 105.48 0.93569 0.43822-0.37758 0.40239-0.90262-0.49747z"/>
   <path d="m62.486 104.43 0.93569 0.43822-0.37758 0.40239-0.90262-0.49747z"/>
   <path d="m64.142 104.2 0.93569 0.43822-0.37896 0.40238-0.90262-0.49747z"/>
   <path d="m63.021 105.33 0.93569 0.43684-0.37758 0.40376-0.90262-0.49747z"/>
   <path d="m61.914 106.4 0.93569 0.43822-0.37896 0.40238-0.90262-0.49747z"/>
   <path d="m69.537 109.46 0.62838 0.21497-0.10748 0.33211-0.63114-0.19982z"/>
   <path d="m70.316 109.17 0.62838 0.21359-0.10748 0.33349-0.63114-0.19982z"/>
   <path d="m69.229 110.39 0.62839 0.21498-0.10886 0.3321-0.63114-0.19981z"/>
   <path d="m69.967 110.13 0.62976 0.21497-0.10886 0.33349-0.63114-0.2012z"/>
   <path d="m70.746 109.85 0.62838 0.21359-0.10748 0.33349-0.63114-0.19982z"/>
   <path d="m71.531 109.6 0.62976 0.21497-0.10886 0.33211-0.63114-0.19981z"/>
   <path d="m71.162 110.62 0.62839 0.21359-0.10749 0.33349-0.63114-0.19982z"/>
   <path d="m70.375 110.95 0.62976 0.21497-0.10749 0.33211-0.63114-0.19981z"/>
   <path d="m71.945 110.25 0.62838 0.21497-0.10749 0.33211-0.63114-0.19982z"/>
   <path d="m71.519 111.41 0.55673 0.18742-0.09646 0.28939-0.5581-0.17501z"/>
   <path d="m72.263 111.08 0.58429 0.18742-0.1006 0.28938-0.58567-0.17363z"/>
   <path d="m72.642 110.01 0.58429 0.18742-0.1006 0.28939-0.58704-0.17364z"/>
   <path d="m73.017 110.74 0.58429 0.18603-0.1006 0.29077-0.58704-0.17501z"/>
   <path d="m72.606 111.81 0.58567 0.18741-0.1006 0.28939-0.58704-0.17501z"/>
   <path d="m73.805 110.5 0.58429 0.18741-0.1006 0.29077-0.58704-0.17501z"/>
   <path d="m73.35 111.53 0.58429 0.18741-0.1006 0.28939-0.58567-0.17363z"/>
   <path d="m74.156 111.29 0.62976 0.18741-0.10749 0.28939-0.6339-0.17363z"/>
   <path d="m73.738 112.34 0.62976 0.18604-0.10749 0.29077-0.63252-0.17502z"/>
   <path d="m75.074 111.05 0.71934 0.23564-0.12402 0.3638-0.72071-0.2191z"/>
   <path d="m74.661 112.04 0.76343 0.23564-0.13091 0.36381-0.76757-0.21911z"/>
   <path d="m75.645 111.85 0.65732 0.23427-0.113 0.36517-0.66008-0.2191z"/>
   <path d="m75.193 112.82 0.65732 0.23426-0.113 0.36518-0.66008-0.21911z"/>
   <path d="m75.996 112.59 0.45613 0.18741-0.07855 0.29077-0.45751-0.17501z"/>
   <path d="m78.027 112.88 0.45613 0.18741-0.07855 0.29077-0.45751-0.17501z"/>
   <path d="m77.571 113.96 0.45613 0.18742-0.07855 0.29076-0.45751-0.17501z"/>
   <path d="m76.415 111.61 0.45613 0.18603-0.07855 0.29077-0.45751-0.17501z"/>
   <path d="m76.651 112.3 0.51952 0.2508-0.08957 0.38861-0.5209-0.23289z"/>
   <path d="m77.45 111.95 0.78273 0.25632-0.13505 0.39825-0.78548-0.23978z"/>
   <path d="m78.795 112.38 0.5457 0.21084-0.0937 0.32797-0.54846-0.19706z"/>
   <path d="m78.258 113.55 0.54708 0.21222-0.0937 0.32797-0.54984-0.19706z"/>
   <path d="m79.126 113.12 0.60772 0.21222-0.10335 0.32797-0.61047-0.19706z"/>
   <path d="m78.554 114.34 0.60771 0.21222-0.10473 0.32797-0.6091-0.19706z"/>
   <path d="m79.959 112.74 0.68902 0.24529-0.11851 0.38034-0.69178-0.22875z"/>
   <path d="m79.45 113.88 0.68902 0.24391-0.11851 0.38172-0.69178-0.22876z"/>
   <path d="m80.478 113.55 0.83096 0.21222-0.14332 0.32797-0.83371-0.19706z"/>
   <path d="m79.83 114.88 0.88057 0.21084-0.15158 0.32798-0.88332-0.19706z"/>
   <path d="m81.102 114.34 0.88057 0.21222-0.15158 0.32797-0.88332-0.19706z"/>
   <path d="m81.62 113.15 0.88057 0.21222-0.15158 0.32798-0.8847-0.19706z"/>
   <path d="m81.718 115.42 0.92742 0.29352-0.15985 0.45751-0.93018-0.27561z"/>
   <path d="m82.323 113.82 0.9288 0.29352-0.15985 0.45751-0.93156-0.2756z"/>
   <path d="m83.562 113.31 0.64354 0.22462-0.11024 0.35002-0.6463-0.21084z"/>
   <path d="m82.986 114.86 0.64354 0.22462-0.11024 0.35002-0.6463-0.21084z"/>
   <path d="m83.888 114.32 0.81028 0.22462-0.13918 0.34864-0.81304-0.20946z"/>
   <path d="m83.296 115.8 0.81029 0.28526-0.13918 0.44373-0.81442-0.26597z"/>
   <path d="m84.368 115.33 0.82269 0.28526-0.14194 0.44235-0.82544-0.26596z"/>
   <path d="m84.951 113.84 0.82407 0.28525-0.14194 0.44235-0.82682-0.26596z"/>
   <path d="m86.734 114.3 0.82406 0.28525-0.14194 0.44236-0.82682-0.26597z"/>
   <path d="m85.51 114.88 0.82269 0.28526-0.14194 0.44234-0.82544-0.26595z"/>
   <path d="m89.232 116.15 0.67248 0.28525-0.11576 0.44235-0.67524-0.26596z"/>
   <path d="m88.709 117.79 0.67248 0.28525-0.11575 0.44235-0.67524-0.26596z"/>
   <path d="m90.1 115.73 0.67248 0.28526-0.11575 0.44373-0.67524-0.26597z"/>
   <path d="m89.584 117.36 0.62839 0.28526-0.10886 0.44373-0.62976-0.26734z"/>
   <path d="m89.096 118.73 0.62838 0.22462-0.10749 0.35002-0.63114-0.20946z"/>
   <path d="m90.455 116.78 0.62838 0.22599-0.10886 0.35002-0.62976-0.21084z"/>
   <path d="m91.343 116.23 0.62838 0.226-0.10749 0.35002-0.62976-0.21084z"/>
   <path d="m92.486 116.68 0.62701 0.22462-0.10749 0.3514-0.62976-0.21084z"/>
   <path d="m90.741 117.91 0.62701 0.22462-0.10748 0.3514-0.62976-0.21084z"/>
   <path d="m90.27 119.34 0.62701 0.226-0.10749 0.35002-0.62976-0.21084z"/>
   <path d="m89.863 118.44 0.62838 0.22462-0.10749 0.3514-0.62976-0.21084z"/>
   <path d="m91.054 118.88 0.54846 0.226-0.09371 0.35002-0.54984-0.21083z"/>
   <path d="m92.768 117.67 0.54846 0.22462-0.09508 0.35002-0.54984-0.20946z"/>
   <path d="m93.652 117.11 0.54708 0.226-0.0937 0.35002-0.54984-0.21084z"/>
   <path d="m92.931 118.84 0.62425 0.19568-0.10748 0.30179-0.62701-0.1819z"/>
   <path d="m92.414 120.25 0.62425 0.1943-0.10749 0.30318-0.62563-0.18191z"/>
   <path d="m93.696 120.69 0.82407 0.27975-0.14194 0.43408-0.82682-0.26045z"/>
   <path d="m95.399 121.34 0.75792 0.27974-0.12953 0.43408-0.76068-0.26182z"/>
   <path d="m96.027 119.85 0.75792 0.27974-0.13091 0.43408-0.7593-0.26045z"/>
   <path d="m98.152 118.69 0.75792 0.27974-0.13091 0.43408-0.7593-0.26045z"/>
   <path d="m97.481 120.3 0.86265 0.27975-0.14745 0.43408-0.86541-0.26183z"/>
   <path d="m96.809 122.06 0.86265 0.27975-0.14883 0.43408-0.86541-0.26183z"/>
   <path d="m96.627 118.13 0.75655 0.27836-0.12954 0.43546-0.76068-0.26182z"/>
   <path d="m97.064 119.31 0.71245 0.27974-0.12265 0.43408-0.7152-0.26183z"/>
   <path d="m96.402 120.85 0.71244 0.27975-0.12265 0.43407-0.7152-0.26182z"/>
   <path d="m98.676 119.78 0.71244 0.27974-0.12265 0.43408-0.71382-0.26045z"/>
   <path d="m98.019 121.63 0.71107 0.27837-0.12264 0.43408-0.71382-0.26045z"/>
   <path d="m99.729 122.34 0.81856 0.27974-0.14056 0.43408-0.82131-0.26044z"/>
   <path d="m100.26 120.36 0.81993 0.27836-0.14194 0.43547-0.82131-0.26183z"/>
   <path d="m102.65 120.89 0.73588 0.27974-0.12678 0.43409-0.73863-0.26045z"/>
   <path d="m102.23 122.41 0.64768 0.27836-0.11162 0.43408-0.64906-0.26045z"/>
   <path d="m101.8 124.12 0.59531 0.27974-0.10335 0.43408-0.59669-0.26183z"/>
   <path d="m102.63 123.44 0.59393 0.27974-0.10197 0.43408-0.59669-0.26182z"/>
   <path d="m103.08 121.95 0.59531 0.27975-0.10197 0.43408-0.5967-0.26045z"/>
   <path d="m103.99 121.32 0.59394 0.27975-0.10198 0.43408-0.59669-0.26183z"/>
   <path d="m103.43 122.88 0.59531 0.27974-0.10335 0.43408-0.59669-0.26045z"/>
   <path d="m104.63 123.41 0.59532 0.27974-0.10336 0.43408-0.59669-0.26183z"/>
   <path d="m105.74 123.95 0.52504 0.23978-0.0896 0.37207-0.5264-0.22325z"/>
   <path d="m106.85 124.45 0.69453 0.23978-0.11852 0.37344-0.69866-0.22461z"/>
   <path d="m108.25 125.27 0.69591 0.23978-0.11989 0.37207-0.69729-0.22324z"/>
   <path d="m109.29 125.58 0.63665 0.22875-0.10887 0.35278-0.63941-0.21222z"/>
   <path d="m110.69 126.1 0.58429 0.22738-0.1006 0.35415-0.58566-0.21221z"/>
   <path d="m104.89 124.49 0.59394 0.27836-0.10198 0.43408-0.59669-0.26044z"/>
   <path d="m105.91 125.06 0.59394 0.27837-0.10198 0.43546-0.59669-0.26183z"/>
   <path d="m107.17 125.69 0.80064 0.27837-0.1378 0.43546-0.8034-0.26183z"/>
   <path d="m108.57 126.3 0.44649 0.17777-0.0772 0.27698-0.44787-0.16674z"/>
   <path d="m109.62 126.8 0.7593 0.24116-0.13092 0.37758-0.76205-0.22738z"/>
   <path d="m110.85 127.26 0.55259 0.24253-0.0937 0.37621-0.55673-0.226z"/>
   <path d="m102.9 124.63 0.59531 0.27837-0.10335 0.43408-0.59669-0.26045z"/>
   <path d="m104.05 125.27 0.46853 0.26321-0.0813 0.4079-0.46991-0.24529z"/>
   <path d="m105.11 125.72 0.46715 0.26321-0.0799 0.4079-0.46991-0.24529z"/>
   <path d="m107.68 126.8 0.58705 0.26183-0.1006 0.4079-0.58842-0.24529z"/>
   <path d="m108.67 127.32 0.59669 0.22049-0.10198 0.34175-0.59806-0.20533z"/>
   <path d="m109.99 127.95 0.59669 0.22048-0.10335 0.34176-0.59807-0.20533z"/>
   <path d="m111.03 128.3 0.59669 0.22049-0.10335 0.34313-0.59807-0.2067z"/>
   <path d="m111.78 126.52 0.59669 0.22049-0.10198 0.34313-0.59944-0.20671z"/>
   <path d="m106.2 126.13 0.68627 0.26182-0.11714 0.4079-0.68902-0.24529z"/>
   <path d="m103.78 124.01 0.59394 0.27974-0.10198 0.43408-0.59669-0.26182z"/>
   <path d="m104.28 122.41 0.59531 0.27836-0.10197 0.43408-0.59807-0.26045z"/>
   <path d="m105.4 122.88 0.59531 0.27974-0.10198 0.43408-0.59669-0.26045z"/>
   <path d="m107.86 123.93 0.72209 0.27974-0.12403 0.43408-0.72484-0.26182z"/>
   <path d="m109.18 124.54 0.44786 0.23427-0.0772 0.36518-0.44786-0.21911z"/>
   <path d="m106.54 123.36 0.59532 0.27836-0.10198 0.43546-0.59669-0.26183z"/>
   <path d="m105.13 121.77 0.59394 0.27973-0.10198 0.43409-0.59669-0.26183z"/>
   <path d="m106.29 122.27 0.59532 0.27836-0.10198 0.43546-0.59669-0.26182z"/>
   <path d="m107.41 122.68 0.77859 0.27975-0.13367 0.43408-0.78135-0.26183z"/>
   <path d="m99.124 120.85 0.87919 0.27975-0.15159 0.43407-0.88194-0.26182z"/>
   <path d="m99.641 119.31 0.87919 0.27974-0.15159 0.43408-0.88194-0.26183z"/>
   <path d="m98.483 122.77 0.97841 0.27974-0.16812 0.43408-0.98254-0.26183z"/>
   <path d="m94.298 119.18 0.82545 0.27974-0.14194 0.43408-0.8282-0.26045z"/>
   <path d="m94.926 117.55 0.82545 0.27974-0.14194 0.43408-0.8282-0.26183z"/>
   <path d="m93.913 118.19 0.72485 0.1943-0.1254 0.3018-0.72623-0.18053z"/>
   <path d="m95.438 118.7 0.83923 0.30593-0.1447 0.47404-0.84198-0.28525z"/>
   <path d="m94.783 120.44 0.83096 0.27698-0.14332 0.42995-0.83233-0.25769z"/>
   <path d="m93.242 119.78 0.69591 0.19568-0.11989 0.30179-0.69729-0.1819z"/>
   <path d="m92.188 119.25 0.54846 0.226-0.09508 0.35002-0.54984-0.21084z"/>
   <path d="m91.325 119.77 0.6463 0.20533-0.11024 0.31833-0.64906-0.19155z"/>
   <path d="m91.645 117.22 0.62701 0.226-0.10748 0.35002-0.62976-0.21084z"/>
   <path d="m91.859 118.37 0.62838 0.22462-0.10749 0.3514-0.62976-0.21084z"/>
   <path d="m84.951 116.29 0.82407 0.28525-0.14194 0.44235-0.82682-0.26596z"/>
   <path d="m86.118 115.92 0.82407 0.28525-0.14194 0.44373-0.82682-0.26596z"/>
   <path d="m85.609 117.18 0.89848 0.28525-0.15434 0.44373-0.90124-0.26596z"/>
   <path d="m88.7 115.03 0.8971 0.28525-0.15434 0.44236-0.90124-0.26597z"/>
   <path d="m88.069 116.81 0.89848 0.28525-0.15434 0.44235-0.90124-0.26596z"/>
   <path d="m87.643 118.15 0.89848 0.28526-0.15434 0.44234-0.90124-0.26596z"/>
   <path d="m77.024 113.03 0.78272 0.25769-0.13505 0.39825-0.78548-0.23978z"/>
  </g>
  <path d="m119.43 106.51c-1.2719-2.1236-2.9421-4.006-4.8989-5.5204-2.3647-1.8328-4.8603-3.6132-6.8199-5.9049-1.8328-2.1415-3.1323-4.757-3.554-7.5503-0.50298-3.328-0.0303-6.7262 0.61461-10 0.51263-2.5976 1.0225-5.2558 0.69177-7.9127-0.35278-2.8374-1.7722-5.5328-4.0625-7.2733-2.3647-1.7956-4.9334-3.2205-7.8465-3.9191-2.5411-0.61185-5.1649-0.52779-7.7322-0.12264-0.1943 0.30592-0.39136 0.61185-0.58704 0.91777-0.26596 0.41755-0.52917 0.83647-0.791 1.2554 3.7455-0.50298 9.9315-0.73036 13.983 2.2696 6.1447 4.5503 5.6265 9.4575 3.9508 16.999-0.75104 3.3748-0.76757 6.937 0.23151 10.264 0.46991 1.5655 1.1383 3.1957 2.1539 4.4869 0.49058 0.62563 0.9977 1.2457 1.5406 1.8273 1.6633 1.7749 3.5112 3.3748 5.5053 4.7666 1.9279 1.345 3.6738 2.9325 4.9981 4.8934 1.6743 2.4805 2.7202 5.8525 2.1277 8.8387-0.39274 1.9734-1.2664 3.7992-1.8852 5.7023-0.70831 2.1746-1.4166 4.3491-2.1249 6.5236-0.0386 0.11989-0.0785 0.24115-0.11713 0.36242l-1.2127-1.1961-0.565 1.8286 1.2182 1.203-0.5581 2.3936-3.4933-1.5186-3.3169 10.877 1.4635 0.69315 1.356 0.64354 2.7134-9.977 3.3528 1.4373c0.67111-2.2379 1.3422-4.4745 2.0133-6.711 0.64354-2.147 1.2871-4.2912 1.9306-6.4382 0.66284-2.2062 1.4924-4.3078 1.4786-6.638-0.0165-2.5783-0.41617-5.26-1.7584-7.5007" fill="#14262b"/>
  <path d="m103.61 116.38-1.2458-1.2292-9.9508-9.813-1.2265-1.2085-9.9646-9.8268 1.582-0.55948 1.1727-5.559 0.50022-2.3757 0.16123-0.76481-32.075 7.8273-1.283 0.3142-5.4074 8.497 3.6022-0.7345 1.9926-0.40514 17.778-3.6201 2.2366-0.45613 0.93706-0.19017 3.8158-0.77722 3.1364-0.63803 9.1805 9.0537 2.0078 1.9802 1.2127 1.1961 10.113 9.9742 1.2595 1.243 9.8833 9.7469 0.565-1.8286z" fill="#14262b"/>
  <g fill="#bac2a1">
   <path d="m90.561 105.89-2.0078-1.9802-14.487-6.2012 2.1704-2.2145-3.8158 0.77722-0.35967 0.45062-0.5774-0.26045-2.2366 0.45613 2.7244 1.2402-8.5686 10.02 5.7492 2.497 3.2687-11.439 0.59807-0.71796 17.439 7.6646-4.2278 11.909 1.3091 0.56913 4.2347-11.574z"/>
   <path d="m100.12 124.12 1.4676 0.63665 1.5586-6.4575-1.2595-1.243z"/>
   <path d="m113.03 128.05-0.45751 1.4814-10.984-4.7708-1.4676-0.63665-12.581-5.4639-1.3091-0.56913-17.078-7.4166-5.7478-2.497-13.4-5.8194 1.4649-1.8204-1.9926 0.40514-0.77859 1.0749-0.76895 1.0583 2.1787 0.94672 0.40652 0.17638 58.977 25.623 0.70555 0.30592 3.4933 1.5186 0.55948-2.3936z"/>
  </g>
 </g>
</svg>
